<?xml version="1.0" encoding="UTF-8"?>
<svg version="1.1" viewBox="0 0 1417 1890" width="1280" height="1280" xmlns="http://www.w3.org/2000/svg">
<path transform="translate(729,365)" d="m0 0h250l125 1 47 1v243l-421 2-76 1-21 1-15 4-12 6-12 9-11 11-11 15-10 17-11 23-9 25-5 15h-21l-215-5-21-1v-39l3-26 5-23 10-30 13-30 16-33 11-23 10-16 10-11 7-8 14-13 17-13 18-13 21-13 25-14 25-13 33-15 27-11 28-10 26-8 10-2 28-2 34-1z" fill="#41B96E"/>
<path transform="translate(1078,730)" d="m0 0h11l1 12 1 31v114l-2 52-4 57-5 46-6 39-6 30-7 27-8 24-9 20-9 16-17 28-14 23-11 17-10 15-12 17-13 17-11 13-7 8-9 10-17 17-8 7-16 13-20 14-19 11-23 12-25 10-27 9-28 7-35 6-43 5-32 3-15 1h-39l-9-2-2-2 1-4 5-4 18-9 17-42 20-49 19-47 15-37 6-15 27-12 17-9 16-11 10-8 10-9 14-14 11-14 10-15 9-16 9-21 7-21 5-22 3-19 2-22 1-295 33-2z" fill="#FEFFFE"/>
<path transform="translate(268,811)" d="m0 0h248l-1 21-4 69-3 73-1 42v96l2 54 3 40 4 34 7 40 7 41 4 34v19l-2 5h-3l-22-12-20-12-33-22-18-13-14-11-11-9-14-12-13-12-24-24-9-11-11-13-14-20-11-19-11-23-7-21-6-27-8-49-6-49-4-45-3-48-2-53z" fill="#D4D4D4"/>
</svg>
